<svg xmlns="http://www.w3.org/2000/svg" xmlns:xlink="http://www.w3.org/1999/xlink" width="50" height="50" viewBox="0 0 50 50"><defs><clipPath id="b"><rect width="50" height="50"/></clipPath></defs><g id="a" clip-path="url(#b)"><rect width="50" height="50" fill="transparent"/><path d="M13149.828,6495.156a17,17,0,1,1-17.016,16.984A16.993,16.993,0,0,1,13149.828,6495.156Zm-1.641,4.18a1.688,1.688,0,1,1,1.672,1.672A1.674,1.674,0,0,1,13148.188,6499.336Zm0,25.688a1.688,1.688,0,1,1,1.672,1.7A1.7,1.7,0,0,1,13148.188,6525.023Zm16.266-12.812v.039h0v.023a1.827,1.827,0,0,1-1.781,1.719,1.777,1.777,0,1,1,1.781-1.852v.039h0Zm-25.687,0a1.8,1.8,0,0,1-1.781,1.781,1.816,1.816,0,0,1-1.781-1.719v-.023h0v-.07h0v-.039a1.782,1.782,0,0,1,3.563.07Zm17.7-20.852a21.259,21.259,0,0,1,5.344,2.539l.578-2.609,1.188-.867,4.7,4.734-1.328,1.32-1.812.1.109.141a21.852,21.852,0,0,1-15.422,37.289,21.871,21.871,0,0,1-15.469-37.289l.141-.141-2.016-.1-1.312-1.32,4.734-4.734,1.141.867.594,2.688-.234.2a21.061,21.061,0,0,1,5.672-2.781,3,3,0,0,1-1.3-2.437h0a2.951,2.951,0,0,1,2.953-2.953h10a2.951,2.951,0,0,1,2.953,2.953h0A3.011,3.011,0,0,1,13156.469,6491.359Zm7.141,7.031a19.54,19.54,0,1,0,5.672,13.75A19.39,19.39,0,0,0,13163.609,6498.391Zm-13.781,10.133a3.578,3.578,0,0,1,1.188.2l6.156-7.094a1.03,1.03,0,0,1,.969-.523,1.453,1.453,0,0,1,1.188,1.18c0,.492.172.039,0,.242l-6.484,7.664a3.344,3.344,0,0,1,.609,1.945,3.625,3.625,0,1,1-3.625-3.617Z" transform="translate(-13125 -6485.008)" fill-rule="evenodd" fill="#555"/></g></svg>