<svg xmlns="http://www.w3.org/2000/svg" xmlns:xlink="http://www.w3.org/1999/xlink" width="50" height="50" viewBox="0 0 50 50"><defs><clipPath id="b"><rect width="50" height="50"/></clipPath></defs><g id="a" clip-path="url(#b)"><rect width="50" height="50" fill="transparent"/><path d="M15977,8376a24,24,0,1,1-24,24A23.978,23.978,0,0,1,15977,8376Zm5.166,30.71a4.52,4.52,0,1,1-4.523,4.521,5.356,5.356,0,0,1,.145-1.076l-9.613-6.888a4.587,4.587,0,0,1-2.3.609,4.52,4.52,0,0,1,0-9.039,4.651,4.651,0,0,1,2.871,1l9-6.1a4.523,4.523,0,1,1,4.414,3.516,4.574,4.574,0,0,1-2.8-.968l-9.039,6.134a8.324,8.324,0,0,1,.07.933,3.981,3.981,0,0,1-.285,1.579l9.326,6.707A4.645,4.645,0,0,1,15982.17,8406.709Z" transform="translate(-15952.002 -8374.999)" fill-rule="evenodd" fill="#737272"/></g></svg>