<svg xmlns="http://www.w3.org/2000/svg" xmlns:xlink="http://www.w3.org/1999/xlink" width="50" height="50" viewBox="0 0 50 50"><defs><clipPath id="b"><rect width="50" height="50"/></clipPath></defs><g id="a" clip-path="url(#b)"><rect width="50" height="50" fill="transparent"/><path d="M11869,8440a24,24,0,1,1-24,24A24.023,24.023,0,0,1,11869,8440Zm-14.134,12.915h28.231a2.483,2.483,0,0,1,2.333,1.685l-16.573,9.042-16.287-9.076A2.4,2.4,0,0,1,11854.866,8452.915Zm30.671,5.058v14.672a2.418,2.418,0,0,1-2.439,2.439h-28.231a2.442,2.442,0,0,1-2.44-2.439v-14.672l16.395,9.111Z" transform="translate(-11844.001 -8439)" fill-rule="evenodd" fill="#737272"/></g></svg>