<svg xmlns="http://www.w3.org/2000/svg" width="200" height="39.647" viewBox="0 0 200 39.647"><path d="M11255.811,4107.929a8.867,8.867,0,0,1,7.986,4.991,4.079,4.079,0,0,0-1-.128,4.031,4.031,0,0,0,0,8.063,4.1,4.1,0,0,0,1-.128,8.887,8.887,0,1,1-7.986-12.8Zm0-10.929a19.823,19.823,0,0,1,1,39.621v.026h-20.758v-18.2c-.025-.538-.052-1.075-.052-1.638A19.826,19.826,0,0,1,11255.811,4097Zm32.992,12.542h-.845v6.962h1.127a6.2,6.2,0,0,0,3.608-.9,3.07,3.07,0,0,0,1.229-2.61,2.89,2.89,0,0,0-1.229-2.611A6.9,6.9,0,0,0,11288.8,4109.542Zm-7.063,21.27v-26.03h6.705a20.938,20.938,0,0,1,4.915.435,8.91,8.91,0,0,1,3.225,1.51,7.544,7.544,0,0,1,2.252,2.662,7.258,7.258,0,0,1,.794,3.353,7.707,7.707,0,0,1-2.815,6.271,11.689,11.689,0,0,1-7.627,2.3h-.769c-.153,0-.307-.026-.461-.026v9.521Zm21.756,0v-26.03h6.143v9.547h10.033v-9.547h6.117v26.03h-6.117v-10.929h-10.033v10.929Zm33.068-13.028a8.5,8.5,0,0,0,1.971,5.708,6.31,6.31,0,0,0,4.914,2.278,6.142,6.142,0,0,0,4.889-2.278,9.247,9.247,0,0,0,0-11.415,6.168,6.168,0,0,0-4.889-2.3,6.255,6.255,0,0,0-4.914,2.3A8.453,8.453,0,0,0,11336.563,4117.783Zm-6.4,0a14.556,14.556,0,0,1,1-5.4,13.414,13.414,0,0,1,2.943-4.53,12.853,12.853,0,0,1,4.249-2.918,13.187,13.187,0,0,1,5.093-1,13.223,13.223,0,0,1,12.286,8.4,14.749,14.749,0,0,1,1,5.452,14.961,14.961,0,0,1-.691,4.607,13.274,13.274,0,0,1-12.593,9.266,12.715,12.715,0,0,1-5.067-1.024,12.543,12.543,0,0,1-4.274-2.943,13.317,13.317,0,0,1-2.943-4.5A14.364,14.364,0,0,1,11330.165,4117.783Zm36.191,13.028v-20.6h-8.268v-5.426h22.729v5.426h-8.241v20.6Zm22.216-13.028a8.391,8.391,0,0,0,2,5.708,6.411,6.411,0,0,0,9.8,0,9.25,9.25,0,0,0,0-11.415,6.366,6.366,0,0,0-9.8,0A8.345,8.345,0,0,0,11388.572,4117.783Zm-6.4,0a14.575,14.575,0,0,1,1-5.4,13.839,13.839,0,0,1,2.943-4.53,12.957,12.957,0,0,1,4.274-2.918,13.158,13.158,0,0,1,5.068-1,13.15,13.15,0,0,1,9.419,3.967,13.028,13.028,0,0,1,2.893,4.428,15.273,15.273,0,0,1,.972,5.452,15.765,15.765,0,0,1-.665,4.607,13.441,13.441,0,0,1-2.048,3.942,13.029,13.029,0,0,1-4.684,3.916,12.973,12.973,0,0,1-10.929.384,12.9,12.9,0,0,1-4.3-2.943,13.738,13.738,0,0,1-2.943-4.5A14.383,14.383,0,0,1,11382.174,4117.783Zm30.894,13.028v-26.03h6.168v11.339l8.6-11.339h7.4l-9.828,12.388,10.6,13.642h-7.5l-9.266-12v12Zm-157.257-28.846a14.858,14.858,0,1,1-14.845,14.845A14.861,14.861,0,0,1,11255.811,4101.965Z" transform="translate(-11236 -4097)" fill="#c7c7c7" fill-rule="evenodd"/></svg>