<svg xmlns="http://www.w3.org/2000/svg" xmlns:xlink="http://www.w3.org/1999/xlink" width="50" height="50" viewBox="0 0 50 50"><defs><clipPath id="b"><rect width="50" height="50"/></clipPath></defs><g id="a" clip-path="url(#b)"><rect width="50" height="50" fill="transparent"/><path d="M14040,8526a24,24,0,1,1-24,24A24.022,24.022,0,0,1,14040,8526Zm0,6.78c9.364,0,16.971,6.564,16.971,14.708,0,8.108-7.606,14.674-16.971,14.674a23.631,23.631,0,0,1-2.8-.18l.071.18-7.1,4.985-.036-.035a1.3,1.3,0,0,1-.538.107,1.194,1.194,0,0,1-1.184-1.184c0-1.364.753-4.7.753-7.247a14,14,0,0,1-6.134-11.3C14023.034,8539.347,14030.6,8532.782,14040,8532.782Zm8.539,12.915a2.3,2.3,0,1,1,0,4.592,2.3,2.3,0,1,1,0-4.592Zm-17.58,0a2.3,2.3,0,1,1-2.295,2.3A2.3,2.3,0,0,1,14030.961,8545.7Zm8.791,0a2.3,2.3,0,0,1,0,4.592,2.3,2.3,0,1,1,0-4.592Z" transform="translate(-14015.002 -8525.002)" fill-rule="evenodd" fill="#737272"/></g></svg>