<svg xmlns="http://www.w3.org/2000/svg" xmlns:xlink="http://www.w3.org/1999/xlink" width="50" height="50" viewBox="0 0 50 50"><defs><clipPath id="b"><rect width="50" height="50"/></clipPath></defs><g id="a" clip-path="url(#b)"><rect width="50" height="50" fill="transparent"/><path d="M17166.016,6725.978a18.041,18.041,0,1,1-18.076,18.04A18.055,18.055,0,0,1,17166.016,6725.978Zm0-4.978a23,23,0,1,1-16.281,6.734A23.037,23.037,0,0,1,17166.016,6721Zm14.494,8.49a20.585,20.585,0,1,0,6,14.527A20.509,20.509,0,0,0,17180.51,6729.49Zm-8.857,4.941a9.386,9.386,0,0,0-4.135-1.062v-3.038h-2.855v3.294a5.776,5.776,0,0,0-4.867,5.709c0,2.927,1.979,4.428,4.8,5.745,2.635,1.133,3.586,2.086,3.586,3.586,0,1.427-.99,2.561-3.076,2.561a9.545,9.545,0,0,1-4.646-1.317l-.879,3.258a11.165,11.165,0,0,0,4.834,1.244v3.294h2.816v-3.514a5.925,5.925,0,0,0,5.2-5.928c0-3-1.572-4.647-4.979-6.149-2.268-1.133-3.512-1.939-3.512-3.292,0-1.1.988-2.3,2.891-2.3a8.693,8.693,0,0,1,3.953,1.06Z" transform="translate(-17140.998 -6719)" fill-rule="evenodd" fill="#555"/></g></svg>