<svg xmlns="http://www.w3.org/2000/svg" xmlns:xlink="http://www.w3.org/1999/xlink" width="50" height="50" viewBox="0 0 50 50"><defs><clipPath id="b"><rect width="50" height="50"/></clipPath></defs><g id="a" clip-path="url(#b)"><rect width="50" height="50" fill="transparent"/><path d="M11077.31,6539.686h9.993l1.807-5.716h.065a1.42,1.42,0,0,1,1.337-.969h14.977a1.489,1.489,0,0,1,1.337.969h.032l1.806,5.716h9.994a3.345,3.345,0,0,1,3.343,3.309v25.538a3.352,3.352,0,0,1-3.343,3.342h-41.348a3.324,3.324,0,0,1-3.31-3.342v-19.153h6.651a1.941,1.941,0,0,0,1.94-1.939v-.836a1.941,1.941,0,0,0-1.94-1.938H11074v-1.671A3.317,3.317,0,0,1,11077.31,6539.686Zm20.724,3.41a12.668,12.668,0,1,1-8.924,3.71A12.559,12.559,0,0,1,11098.033,6543.1Zm7.321,5.314a10.41,10.41,0,1,0,3.009,7.32A10.368,10.368,0,0,0,11105.354,6548.409Zm-7.321-.334a7.638,7.638,0,1,1-7.654,7.654A7.647,7.647,0,0,1,11098.033,6548.075Zm16.913,2.975c-1.4-1.07-2.94-1.906-3.642-3.376a2.4,2.4,0,0,1-.838-1.839c0-3.041,2.71-2.908,4.479-1.336,1.771-1.571,4.48-1.7,4.48,1.336a2.4,2.4,0,0,1-.837,1.839C11117.889,6549.145,11116.352,6549.98,11114.946,6551.05Z" transform="translate(-11073 -6526.708)" fill-rule="evenodd" fill="#555"/></g></svg>