<svg xmlns="http://www.w3.org/2000/svg" xmlns:xlink="http://www.w3.org/1999/xlink" width="50" height="50" viewBox="0 0 50 50"><defs><clipPath id="b"><rect width="50" height="50"/></clipPath></defs><g id="a" clip-path="url(#b)"><rect width="50" height="50" fill="transparent"/><path d="M15067.965,6413a5.852,5.852,0,1,1-5.85,5.853A5.841,5.841,0,0,1,15067.965,6413Zm14.719,3.785a4.87,4.87,0,1,0,4.869,4.87A4.892,4.892,0,0,0,15082.684,6416.784Zm6.621,11.948h-7.395v11.492c0,2.452-.455,4.134-1.576,5.291a5.147,5.147,0,0,1-2.873,1.365v4.941a2.072,2.072,0,0,0,2.068,2.066h5.957a2.072,2.072,0,0,0,2.066-2.066v-8.584h1.752a2.721,2.721,0,0,0,2.7-2.7v-9.109A2.72,2.72,0,0,0,15089.3,6428.732Zm-25.264,28.625h7.99a2.384,2.384,0,0,0,2.381-2.383v-10.266h1.787a3.275,3.275,0,0,0,3.26-3.259v-10.967a3.283,3.283,0,0,0-3.26-3.293h-16.326a3.281,3.281,0,0,0-3.258,3.293v10.967a3.274,3.274,0,0,0,3.258,3.259h1.787v10.266A2.406,2.406,0,0,0,15064.041,6457.357Zm-10.686-40.573a4.87,4.87,0,1,1-4.9,4.87A4.883,4.883,0,0,1,15053.355,6416.784Zm-6.656,11.948h7.393v11.492c0,2.452.457,4.134,1.574,5.291a5.284,5.284,0,0,0,2.875,1.365v4.941a2.071,2.071,0,0,1-2.068,2.066h-5.92a2.078,2.078,0,0,1-2.1-2.066v-8.374a.438.438,0,0,1,.035-.21h-1.787a2.723,2.723,0,0,1-2.7-2.7v-9.109A2.722,2.722,0,0,1,15046.7,6428.732Z" transform="translate(-15043 -6409.999)" fill-rule="evenodd" fill="#555"/></g></svg>